<svg width="183" height="164" viewBox="0 0 183 164" fill="none" xmlns="http://www.w3.org/2000/svg">
<path d="M17 16.5728L24.5725 9.0002L32.1451 16.5728L24.5725 24.1453L17 16.5728Z" fill="#FFD02F"/>
<path d="M167 100.573L174.573 93.0002L182.145 100.573L174.573 108.145L167 100.573Z" fill="#62D38F"/>
<path d="M146 11.2861L152.286 4.99987L158.573 11.2861L152.286 17.5724L146 11.2861Z" fill="#FF4E61"/>
<path d="M0 110.573L7.57255 103L15.1451 110.573L7.57255 118.145L0 110.573Z" fill="#5C73BC"/>
<path d="M152 75.7861L156.786 70.9999L161.573 75.7861L156.786 80.5724L152 75.7861Z" fill="#5C73BC"/>
<path d="M20 119.786L24.7863 115L29.5725 119.786L24.7863 124.572L20 119.786Z" fill="#FFD02F"/>
<path d="M110 4.78613L114.786 -0.00012896L119.573 4.78613L114.786 9.57239L110 4.78613Z" fill="#5C73BC"/>
<path d="M5 71.7861L9.78625 66.9999L14.5725 71.7861L9.78625 76.5724L5 71.7861Z" fill="#5C73BC"/>
<path d="M52.7564 159.108C52.1754 159.108 51.5945 158.891 51.1444 158.455C50.227 157.567 50.205 156.104 51.0967 155.189L53.9734 152.231C54.8638 151.316 56.329 151.294 57.2464 152.182C58.1637 153.071 58.1857 154.533 57.2953 155.449L54.4173 158.407C53.9636 158.874 53.3606 159.108 52.7564 159.108Z" fill="#FF4E61"/>
<path d="M83.9819 45.6446C83.4021 45.6446 82.82 45.4273 82.3711 44.9915C81.4538 44.1029 81.4317 42.6405 82.3222 41.7261L85.2001 38.7672C86.0905 37.8516 87.5545 37.8297 88.4719 38.7183C89.3892 39.607 89.4112 41.0694 88.5208 41.9849L85.6428 44.9439C85.1891 45.4102 84.5861 45.6446 83.9819 45.6446Z" fill="#FF4E61"/>
<path d="M150.41 35.372C149.829 35.372 149.248 35.156 148.798 34.7202C147.881 33.8315 147.859 32.3691 148.749 31.4536L151.627 28.4946C152.518 27.5803 153.983 27.5583 154.9 28.447C155.818 29.3344 155.84 30.7981 154.949 31.7124L152.071 34.6714C151.618 35.1377 151.015 35.372 150.41 35.372Z" fill="#5C73BC"/>
<path d="M150.41 148.929C149.829 148.929 149.248 148.712 148.798 148.277C147.881 147.389 147.859 145.926 148.749 145.011L151.627 142.052C152.518 141.138 153.983 141.114 154.9 142.003C155.818 142.892 155.84 144.354 154.949 145.27L152.071 148.229C151.618 148.695 151.015 148.929 150.41 148.929Z" fill="#FFAA00"/>
<path d="M40.5913 39.2846C40.0115 39.2846 39.4293 39.0686 38.9805 38.6328C38.0631 37.7441 38.0411 36.2817 38.9315 35.3662L41.8095 32.4072C42.6999 31.4929 44.1651 31.4709 45.0825 32.3596C45.9986 33.2483 46.0206 34.7107 45.1302 35.625L42.2522 38.584C41.7985 39.0503 41.1955 39.2846 40.5913 39.2846Z" fill="#FFAA00"/>
<path d="M24.6972 91.1324C24.1175 91.1324 23.5353 90.9164 23.0864 90.4806C22.1691 89.5919 22.1471 88.1295 23.0375 87.214L25.9142 84.255C26.8046 83.3394 28.2699 83.3175 29.1872 84.2061C30.1045 85.0948 30.1265 86.5572 29.2361 87.4727L26.3582 90.4317C25.9056 90.898 25.3014 91.1324 24.6972 91.1324Z" fill="#2DC471"/>
<path d="M88.5672 91.0289L81.0537 95.0902C79.1053 96.1437 76.8279 94.442 77.1997 92.2106L78.6344 83.6095C78.7824 82.7233 78.4974 81.8199 77.8712 81.1925L71.7924 75.1C70.2159 73.5204 71.0855 70.7677 73.2651 70.4418L81.664 69.1869C82.53 69.0575 83.2773 68.4996 83.6638 67.6927L87.4211 59.8668C88.3959 57.838 91.2103 57.838 92.1851 59.8668L95.9412 67.6927C96.3289 68.4996 97.0762 69.0575 97.9409 69.1869L106.341 70.4418C108.519 70.7677 109.389 73.5204 107.813 75.1L101.735 81.1925C101.109 81.8199 100.823 82.7233 100.971 83.6095L102.405 92.2106C102.778 94.442 100.501 96.1437 98.5525 95.0902L91.039 91.0289C90.2648 90.6102 89.3402 90.6102 88.5672 91.0289Z" fill="#FFD02F"/>
<path d="M89.8024 164C88.5242 164 87.4883 162.966 87.4883 161.691V125.568C87.4883 124.292 88.5242 123.257 89.8024 123.257C91.0805 123.257 92.1165 124.292 92.1165 125.568V161.691C92.1165 162.966 91.0805 164 89.8024 164Z" fill="#5C73BC"/>
<path d="M89.821 115.695H89.7855C88.5074 115.695 87.4702 114.659 87.4702 113.384C87.4702 112.108 88.5062 111.074 89.7855 111.074H89.821C91.0991 111.074 92.1351 112.108 92.1351 113.384C92.1351 114.659 91.0991 115.695 89.821 115.695Z" fill="#5C73BC"/>
<path d="M89.821 107.749C89.8173 107.749 89.8137 107.749 89.8112 107.749H89.7745C88.4964 107.744 87.4653 106.705 87.4702 105.43C87.4763 104.156 88.5111 103.13 89.7843 103.13H89.7953H89.8308C91.1089 103.135 92.14 104.174 92.1351 105.449C92.1302 106.721 91.0942 107.749 89.821 107.749Z" fill="#FFAA00"/>
<path d="M48.1575 76.1545C47.5533 76.1545 46.9503 75.9201 46.4965 75.4538L21.6543 49.9106C20.7639 48.9951 20.7847 47.5327 21.702 46.6452C22.6193 45.7566 24.0846 45.7785 24.975 46.6928L49.8184 72.2361C50.7088 73.1504 50.6868 74.614 49.7695 75.5014C49.3194 75.9372 48.7384 76.1545 48.1575 76.1545Z" fill="#FF4E61"/>
<path d="M56.5235 84.7826C55.9401 84.7826 55.3567 84.5641 54.9066 84.1246C53.9917 83.2335 53.9746 81.7711 54.8675 80.858L54.8932 80.8324C55.786 79.9205 57.2513 79.9022 58.1662 80.7945C59.081 81.6857 59.0982 83.1481 58.2041 84.0611L58.1796 84.0868C57.7258 84.5494 57.1253 84.7826 56.5235 84.7826Z" fill="#FFAA00"/>
<path d="M61.9869 90.4003C61.406 90.4003 60.825 90.1831 60.3749 89.7473C59.4588 88.8586 59.4368 87.3962 60.3272 86.4819L60.3516 86.455C61.2433 85.5395 62.7085 85.5187 63.6246 86.4074C64.542 87.2961 64.564 88.7585 63.6736 89.674L63.6479 89.6997C63.1941 90.166 62.5911 90.4003 61.9869 90.4003Z" fill="#5C73BC"/>
<path d="M131.448 75.2467C130.867 75.2467 130.286 75.0306 129.837 74.5948C128.92 73.7061 128.898 72.2437 129.788 71.3282L154.63 45.7862C155.521 44.8707 156.986 44.8487 157.903 45.7374C158.821 46.6261 158.843 48.0885 157.952 49.004L133.109 74.546C132.655 75.0123 132.052 75.2467 131.448 75.2467Z" fill="#FFAA00"/>
<path d="M123.082 83.8757C122.482 83.8757 121.884 83.645 121.432 83.1848L121.406 83.1592C120.51 82.2486 120.523 80.7862 121.434 79.8926C122.347 78.9978 123.812 79.0113 124.707 79.9207L124.733 79.9463C125.628 80.857 125.616 82.3194 124.704 83.2129C124.253 83.6548 123.668 83.8757 123.082 83.8757Z" fill="#FF4E61"/>
<path d="M117.618 89.4931C117.014 89.4931 116.411 89.2588 115.957 88.7925L115.932 88.7668C115.042 87.8513 115.063 86.3889 115.98 85.5002C116.898 84.6115 118.363 84.6335 119.253 85.5478L119.279 85.5735C120.168 86.489 120.148 87.9514 119.23 88.8401C118.78 89.2759 118.199 89.4931 117.618 89.4931Z" fill="#FFAA00"/>
<path d="M114.981 40.4662C114.592 40.4662 114.198 40.3686 113.838 40.1623C112.727 39.5299 112.341 38.1188 112.974 37.0116L130.779 5.87026C131.412 4.76309 132.825 4.37734 133.935 5.00967C135.046 5.64199 135.433 7.05313 134.799 8.1603L116.994 39.3017C116.568 40.0475 115.786 40.4662 114.981 40.4662Z" fill="#62D38F"/>
<path d="M108.992 50.9775C108.587 50.9775 108.178 50.8725 107.805 50.6504L107.775 50.632C106.679 49.9777 106.32 48.5593 106.977 47.4643C107.633 46.3681 109.054 46.0129 110.151 46.6672L110.182 46.6855C111.279 47.3398 111.636 48.7583 110.98 49.8532C110.546 50.5771 109.779 50.9775 108.992 50.9775Z" fill="#FFAA00"/>
<path d="M105.075 57.827C104.668 57.827 104.256 57.7196 103.883 57.495L103.852 57.4767C102.758 56.8175 102.405 55.3978 103.065 54.3053C103.725 53.2128 105.148 52.8624 106.242 53.5204L106.273 53.5387C107.368 54.1979 107.72 55.6175 107.059 56.7101C106.625 57.4291 105.859 57.827 105.075 57.827Z" fill="#2DC471"/>
<path d="M64.6679 40.466C63.8631 40.466 63.0815 40.0473 62.6547 39.3002L44.8501 8.16008C44.2165 7.05168 44.603 5.64177 45.7124 5.00944C46.823 4.37712 48.2368 4.76164 48.8704 5.87004L66.675 37.0102C67.3085 38.1186 66.922 39.5297 65.8127 40.162C65.4506 40.3683 65.0568 40.466 64.6679 40.466Z" fill="#5C73BC"/>
<path d="M70.6573 50.9776C69.8721 50.9776 69.1052 50.5784 68.671 49.8582C68.013 48.7644 68.3677 47.3447 69.4624 46.688L69.4942 46.6697C70.5901 46.0129 72.0113 46.3657 72.6693 47.4595C73.3286 48.5532 72.9739 49.9717 71.878 50.6296L71.8474 50.648C71.4744 50.8713 71.0634 50.9776 70.6573 50.9776Z" fill="#FF4E61"/>
<path d="M74.5739 57.827C73.7911 57.827 73.0279 57.4315 72.5924 56.7138C71.9295 55.6225 72.2793 54.2028 73.3716 53.5412L73.4021 53.5228C74.4968 52.8624 75.9193 53.2103 76.5822 54.3017C77.2439 55.393 76.8953 56.8126 75.8018 57.4743L75.7713 57.4926C75.3958 57.7196 74.9824 57.827 74.5739 57.827Z" fill="#FFAA00"/>
<path d="M146.759 115.65L141.899 119.276C140.639 120.217 138.877 119.262 138.917 117.662L139.075 111.49C139.091 110.854 138.802 110.251 138.302 109.876L133.446 106.245C132.186 105.303 132.524 103.285 134.017 102.829L139.776 101.076C140.368 100.896 140.837 100.426 141.028 99.8216L142.887 93.9512C143.369 92.4278 145.341 92.1348 146.223 93.4544L149.624 98.5435C149.975 99.0672 150.554 99.3809 151.171 99.3809L157.177 99.3845C158.735 99.3858 159.615 101.223 158.666 102.494L155.01 107.391C154.634 107.897 154.522 108.559 154.713 109.164L156.566 115.038C157.046 116.561 155.618 117.989 154.151 117.455L148.49 115.393C147.908 115.18 147.261 115.277 146.759 115.65Z" fill="#FFD02F"/>
<path d="M102.724 164C101.446 164 100.41 162.966 100.41 161.69C100.41 143.806 107.559 131.715 113.556 124.72C120.077 117.116 126.586 113.775 126.86 113.636C127.999 113.059 129.393 113.514 129.97 114.653C130.547 115.789 130.093 117.177 128.955 117.756C128.857 117.806 122.849 120.932 116.941 127.879C109.043 137.166 105.038 148.542 105.038 161.69C105.038 162.966 104.002 164 102.724 164Z" fill="#FF4E61"/>
<path d="M53.0486 128.172L56.7326 133.049C57.689 134.314 59.6399 133.902 60.0349 132.353L61.5577 126.38C61.7142 125.766 62.1558 125.27 62.738 125.054L68.3862 122.958C69.8515 122.414 70.0741 120.379 68.7641 119.515L63.7103 116.18C63.1905 115.836 62.8676 115.251 62.8468 114.617L62.6536 108.445C62.6046 106.844 60.7908 105.997 59.586 107.012L54.9395 110.923C54.4601 111.326 53.8192 111.461 53.226 111.284L47.4579 109.565C45.962 109.12 44.6178 110.631 45.1841 112.123L47.3661 117.876C47.5912 118.468 47.5178 119.137 47.1704 119.663L43.7984 124.772C42.9239 126.097 43.906 127.877 45.4618 127.785L51.4561 127.429C52.0738 127.392 52.6695 127.671 53.0486 128.172Z" fill="#FFD02F"/>
<path d="M76.8977 164C75.6196 164 74.5836 162.966 74.5836 161.69C74.5836 152.297 72.4921 143.703 68.3678 136.148C67.7563 135.028 68.1709 133.625 69.2937 133.015C70.4165 132.404 71.8219 132.818 72.4334 133.938C76.9307 142.18 79.2118 151.517 79.2118 161.69C79.2118 162.966 78.1758 164 76.8977 164Z" fill="#FFAA00"/>
<path d="M105.047 21.4685C105.047 17.9419 102.266 15.083 98.8363 15.083C95.4056 15.083 92.6255 17.9419 92.6255 21.4685C92.6255 24.9951 95.4056 27.8552 98.8363 27.8552C102.266 27.8552 105.047 24.9951 105.047 21.4685Z" fill="#FFD02F"/>
<path d="M137.658 143.629C137.658 140.103 134.878 137.244 131.449 137.244C128.018 137.244 125.238 140.103 125.238 143.629C125.238 147.156 128.018 150.015 131.449 150.015C134.878 150.015 137.658 147.156 137.658 143.629Z" fill="#5C73BC"/>
<path d="M34.6608 144.892C34.6608 142.064 32.4311 139.771 29.6792 139.771C26.9284 139.771 24.6987 142.064 24.6987 144.892C24.6987 147.722 26.9284 150.014 29.6792 150.014C32.4311 150.014 34.6608 147.722 34.6608 144.892Z" fill="#62D38F"/>
<path d="M48.4509 94.1101C48.4509 91.2817 46.2212 88.9893 43.4692 88.9893C40.7185 88.9893 38.4888 91.2817 38.4888 94.1101C38.4888 96.9385 40.7185 99.2322 43.4692 99.2322C46.2212 99.2322 48.4509 96.9385 48.4509 94.1101Z" fill="#5C73BC"/>
<path d="M86.86 9.12207C86.86 6.29248 84.6303 4 81.8796 4C79.1276 4 76.8979 6.29248 76.8979 9.12207C76.8979 11.9504 79.1276 14.2429 81.8796 14.2429C84.6303 14.2429 86.86 11.9504 86.86 9.12207Z" fill="#FF4E61"/>
<path d="M135.2 51.7759C135.2 48.9475 132.969 46.6538 130.218 46.6538C127.468 46.6538 125.237 48.9475 125.237 51.7759C125.237 54.6042 127.468 56.8967 130.218 56.8967C132.969 56.8967 135.2 54.6042 135.2 51.7759Z" fill="#FF4E61"/>
<path d="M64.6657 14.233C64.0848 14.233 63.5038 14.0169 63.0537 13.5799C62.1364 12.6912 62.1144 11.2301 63.0048 10.3145L65.8827 7.35555C66.7731 6.44002 68.2384 6.41805 69.1545 7.30672C70.0718 8.19539 70.0938 9.65779 69.2034 10.5733L66.3267 13.5323C65.8729 13.9986 65.2687 14.233 64.6657 14.233Z" fill="#FF4E61"/>
</svg>
